<?xml version='1.0' encoding='iso-8859-1'?>
<!DOCTYPE svg PUBLIC '-//W3C//DTD SVG 1.1//EN' 'http://www.w3.org/Graphics/SVG/1.1/DTD/svg11.dtd'>
<svg version="1.1" xmlns="http://www.w3.org/2000/svg" viewBox="0 0 512 512" xmlns:xlink="http://www.w3.org/1999/xlink" enable-background="new 0 0 512 512">
  <path d="m448,288.001c-23.667-4.083-71.686-11.966-96-16.001-10.042-1.667-16-7.002-16-16.002 0-8.837 5.958-14.333 16-16 24.314-4.035 72.333-11.917 96-16 32.94-5.683 60.527-24.438 63.699-57.715 3.64-38.172-26.278-70.285-63.699-70.285h-2.751c-16.153,1.42109e-14-29.249-13.096-29.249-29.249v-0.001c0-33.427-24.439-63.277-57.714-66.45-38.172-3.64-63.854,26.837-70.286,63.7-4.188,24-12.236,72.065-16,96-1.625,10.333-7.163,16-16,16-9,0-14.375-5.667-16-16-3.764-23.935-11.813-72-16-96-6.432-36.864-32.114-67.34-70.286-63.7-33.275,3.172-57.714,33.023-57.714,66.45v0.001c0,16.153-13.096,29.249-29.249,29.249h-2.751c-37.421,0-67.339,32.113-63.7,70.285 3.173,33.277 30.76,52.032 63.7,57.715 23.667,4.083 71.687,11.965 96,16 10.042,1.667 16,7.163 16,16 0,9-5.958,14.335-16,16.002-24.313,4.035-72.333,11.918-96,16.001-32.94,5.683-60.527,24.437-63.7,57.713-3.64,38.172 26.278,70.284 63.7,70.284h2.751c16.153,0 29.249,13.1 29.249,29.253v0.001c0,33.427 24.438,63.277 57.714,66.45 38.172,3.64 63.854-26.837 70.286-63.7 4.188-24 12.236-72.065 16-96 1.625-10.333 7-16 16-16s14.375,5.667 16,16c3.764,23.935 11.813,72 16,96 6.432,36.864 32.114,67.34 70.286,63.7 33.276-3.172 57.714-33.023 57.714-66.45v-0.001c0-16.153 13.096-29.253 29.249-29.253h2.751c37.421,0 67.339-32.112 63.699-70.284-3.172-33.276-30.759-52.03-63.699-57.713z"/>
</svg>
